<svg width="18" height="18" viewBox="0 0 18 18" fill="none" xmlns="http://www.w3.org/2000/svg">
<path d="M15.1471 7.73975L14.2659 5.61187L15.4502 4.21116L13.8447 2.60558L12.4516 3.79608L10.2785 2.90241L9.77876 1H8.20987L7.70258 2.92761L5.57945 3.82258L4.21116 2.60558L2.60558 4.21116L3.77233 5.64724L2.90462 7.78061L1 8.22512V9.8307L2.92759 10.3569L3.82241 12.4797L2.60558 13.8447L4.21116 15.4502L5.64909 14.2784L7.74104 15.139L8.22512 17.0558H9.8307L10.316 15.1397L12.4439 14.2585C12.7985 14.512 13.8447 15.4502 13.8447 15.4502L15.4502 13.8447L14.2588 12.4393L15.1403 10.3108L17.0557 9.8124L17.0558 8.22512L15.1471 7.73975Z" fill="black" stroke="black" stroke-width="1.20419" stroke-linecap="round" stroke-linejoin="round"/>
<path d="M9.02788 11.4363C10.358 11.4363 11.4363 10.358 11.4363 9.02788C11.4363 7.69774 10.358 6.61951 9.02788 6.61951C7.69774 6.61951 6.61951 7.69774 6.61951 9.02788C6.61951 10.358 7.69774 11.4363 9.02788 11.4363Z" fill="white" stroke="black" stroke-width="1.20419" stroke-linecap="round" stroke-linejoin="round"/>
</svg>
