<svg width="28" height="27" viewBox="0 0 28 27" fill="none" xmlns="http://www.w3.org/2000/svg">
<path d="M20.2211 10.9018C22.1512 10.9018 23.7158 9.33713 23.7158 7.40704C23.7158 5.47694 22.1512 3.91229 20.2211 3.91229C18.291 3.91229 16.7263 5.47694 16.7263 7.40704C16.7263 9.33713 18.291 10.9018 20.2211 10.9018Z" stroke="black" stroke-width="0.873687" stroke-linecap="round" stroke-linejoin="round"/>
<path d="M26.0457 7.40698H26.6281" stroke="black" stroke-width="0.873687" stroke-linecap="round" stroke-linejoin="round"/>
<path d="M20.2212 1.58246V1" stroke="black" stroke-width="0.873687" stroke-linecap="round" stroke-linejoin="round"/>
<path d="M20.2212 13.814V13.2316" stroke="black" stroke-width="0.873687" stroke-linecap="round" stroke-linejoin="round"/>
<path d="M24.8808 12.0666L24.2983 11.4842" stroke="black" stroke-width="0.873687" stroke-linecap="round" stroke-linejoin="round"/>
<path d="M24.8808 2.74738L24.2983 3.32983" stroke="black" stroke-width="0.873687" stroke-linecap="round" stroke-linejoin="round"/>
<path d="M15.5613 12.0666L16.1437 11.4842" stroke="black" stroke-width="0.873687" stroke-linecap="round" stroke-linejoin="round"/>
<path d="M15.5613 2.74738L16.1437 3.32983" stroke="black" stroke-width="0.873687" stroke-linecap="round" stroke-linejoin="round"/>
<path d="M13.8142 7.40698H14.3967" stroke="black" stroke-width="0.873687" stroke-linecap="round" stroke-linejoin="round"/>
<path d="M1 19.2417C1 22.9742 4.02579 26 7.75828 26C10.4119 26 12.7082 24.4707 13.8141 22.2454C7.75828 22.2454 4.7546 19.2417 4.7546 13.1859C2.5293 14.2918 1 16.5882 1 19.2417Z" stroke="black" stroke-width="1.06784" stroke-linecap="round" stroke-linejoin="round"/>
<line x1="5.11661" y1="5.55178" x2="22.8831" y2="23.3183" stroke="black" stroke-width="0.628141"/>
</svg>
