<svg width="104" height="30" viewBox="0 0 104 30" fill="none" xmlns="http://www.w3.org/2000/svg">
<path d="M8.06928 29.8576C7.21168 29.8576 6.63994 29.5587 6.35407 28.961C6.0682 28.3373 5.92527 27.6486 5.92527 26.895C5.92527 26.3752 5.96425 25.8684 6.04222 25.3747C6.12018 24.8549 6.19814 24.4261 6.27611 24.0883C6.48401 23.1007 6.82186 21.9313 7.28964 20.5799C7.75742 19.2025 8.29018 17.7602 8.8879 16.2529C9.51162 14.7196 10.1613 13.2123 10.837 11.731C11.5127 10.2237 12.1624 8.8203 12.7861 7.5209C13.4358 6.19551 14.0075 5.06503 14.5013 4.12946C13.9036 4.15545 13.2149 4.15545 12.4353 4.12946C11.6556 4.07749 10.85 4.0515 10.0184 4.0515C8.58904 4.0515 7.17269 4.16844 5.76934 4.40234C4.39198 4.61024 3.2615 5.11701 2.3779 5.92264C1.9621 6.31246 1.66323 6.72826 1.48132 7.17006C1.2994 7.61186 1.20844 8.05365 1.20844 8.49545C1.20844 8.98922 1.28641 9.47 1.44234 9.93779C1.46832 9.98976 1.48132 10.0547 1.48132 10.1327C1.48132 10.3926 1.35138 10.5225 1.0915 10.5225C0.935569 10.5225 0.818623 10.4575 0.740659 10.3276C0.480778 9.9118 0.285868 9.49599 0.155928 9.08018C0.051976 8.63838 0 8.20958 0 7.79377C0 7.06611 0.12994 6.37743 0.38982 5.72773C0.649701 5.07802 0.961557 4.54527 1.32539 4.12946C2.23497 3.06395 3.4694 2.36228 5.02868 2.02443C6.58796 1.6606 8.21222 1.47868 9.90144 1.47868C11.2008 1.47868 12.4613 1.53066 13.6827 1.63461C14.9301 1.73856 16.0346 1.81653 16.9962 1.8685C17.9057 1.92048 19.0362 2.01144 20.3876 2.14138C21.739 2.24533 23.0514 2.29731 24.3248 2.29731C25.4683 2.29731 26.4948 2.21934 27.4044 2.06341C28.314 1.90749 28.9766 1.62162 29.3925 1.20581C29.4704 1.36174 29.5094 1.54365 29.5094 1.75156C29.5094 2.29731 29.1975 2.83006 28.5738 3.34982C27.9501 3.86958 27.1055 4.22042 26.04 4.40234C25.7022 4.45431 25.3123 4.49329 24.8705 4.51928C24.4547 4.54527 24.0129 4.55826 23.5451 4.55826C22.7655 4.55826 21.9859 4.54527 21.2062 4.51928C20.4266 4.46731 19.7379 4.41533 19.1402 4.36335C18.5425 4.31138 18.1396 4.29838 17.9317 4.32437C17.7758 4.55826 17.5289 4.98707 17.1911 5.61078C16.8792 6.23449 16.5414 6.91018 16.1775 7.63784C15.8137 8.36551 15.4889 9.0282 15.203 9.62593C14.7092 10.6655 14.1895 11.8349 13.6437 13.1343C13.098 14.4337 12.5782 15.7461 12.0844 17.0715C11.5907 18.3969 11.1619 19.6573 10.798 20.8528C10.4602 22.0482 10.2393 23.0747 10.1353 23.9323C10.1093 24.0103 10.0963 24.1013 10.0963 24.2052C10.0963 24.2832 10.0963 24.3611 10.0963 24.4391C10.0963 24.9329 10.1873 25.3617 10.3692 25.7255C10.5771 26.0634 10.889 26.2323 11.3048 26.2323C11.6686 26.2323 12.1104 26.0374 12.6302 25.6475C13.1499 25.2577 13.7477 24.608 14.4234 23.6984C14.5533 23.5425 14.6702 23.4646 14.7742 23.4646C14.9301 23.4646 15.0081 23.5945 15.0081 23.8544C15.0081 24.0363 14.9431 24.2832 14.8132 24.595C14.7092 24.9069 14.5143 25.2707 14.2284 25.6865C13.9946 26.0244 13.6177 26.4792 13.098 27.0509C12.5782 27.5966 12.0714 28.0644 11.5777 28.4543C11.1359 28.8181 10.5901 29.1429 9.94042 29.4288C9.29072 29.7147 8.66701 29.8576 8.06928 29.8576ZM23.3274 29.2729C22.4958 29.2729 21.8981 28.922 21.5342 28.2204C21.2484 27.5966 21.1054 26.856 21.1054 25.9984C21.1054 25.0368 21.2484 23.9713 21.5342 22.8019C21.8201 21.6324 22.2099 20.4369 22.7037 19.2155C22.8856 18.7737 23.1195 18.215 23.4054 17.5393C23.7172 16.8636 24.081 16.2009 24.4969 15.5512C24.133 15.8631 23.7042 16.1229 23.2105 16.3308C22.7167 16.5128 22.2359 16.6037 21.7681 16.6037C21.4043 16.6037 21.1054 16.5517 20.8715 16.4478C20.6636 16.8636 20.3258 17.5393 19.858 18.4749C19.3902 19.4104 18.7665 20.5149 17.9869 21.7883C17.9089 21.9183 17.8309 21.9183 17.753 21.7883C17.701 21.6324 17.675 21.4245 17.675 21.1646C17.675 20.9567 17.701 20.7358 17.753 20.5019C17.8049 20.268 17.8829 20.0471 17.9869 19.8392C18.2467 19.3454 18.5066 18.8387 18.7665 18.3189C19.0264 17.7732 19.2603 17.2924 19.4682 16.8766C19.6761 16.4608 19.793 16.2009 19.819 16.0969C19.3512 15.8631 19.0004 15.5382 18.7665 15.1224C18.5326 14.6806 18.4157 14.2518 18.4157 13.836C18.4157 13.4202 18.5066 13.0434 18.6885 12.7055C18.8964 12.3677 19.1953 12.1078 19.5851 11.9259C19.819 11.8479 20.0399 11.8089 20.2478 11.8089C20.8196 11.8089 21.2873 11.9908 21.6512 12.3547C21.6252 12.4586 21.5992 12.5756 21.5732 12.7055C21.5732 12.8095 21.5732 12.9264 21.5732 13.0563C21.5732 13.862 21.8981 14.4597 22.5478 14.8495C23.1975 15.2393 23.8991 15.3823 24.6528 15.2783C25.0166 14.7586 25.4324 14.3038 25.9002 13.914C26.368 13.5241 26.8748 13.3292 27.4205 13.3292C27.7064 13.3292 28.1092 13.3422 28.629 13.3682C29.1747 13.3942 29.5645 13.3942 29.7984 13.3682C29.6425 13.4722 29.4606 13.6801 29.2527 13.9919C29.0448 14.3038 28.8499 14.6286 28.6679 14.9665C28.486 15.3043 28.3431 15.5642 28.2391 15.7461C27.5375 17.0975 26.8878 18.4489 26.29 19.8002C25.6923 21.1256 25.2375 22.399 24.9257 23.6205C24.8737 23.8544 24.8217 24.0753 24.7697 24.2832C24.7437 24.4651 24.7308 24.66 24.7308 24.8679C24.7308 25.6475 24.9906 26.0374 25.5104 26.0374C25.8742 26.0374 26.394 25.7775 27.0697 25.2577C27.6674 24.764 28.2002 24.2182 28.6679 23.6205C29.1877 22.9448 29.6815 22.2171 30.1493 21.4375C30.617 20.6578 31.0199 19.9432 31.3577 19.2935C31.4876 19.0856 31.5786 18.9816 31.6306 18.9816C31.7865 18.9816 31.8645 19.2155 31.8645 19.6833C31.8645 19.8652 31.8385 20.0861 31.7865 20.346C31.7345 20.6059 31.6436 20.8528 31.5136 21.0866C31.1238 21.7363 30.682 22.451 30.1882 23.2307C29.6945 23.9843 29.1877 24.725 28.6679 25.4526C28.3301 25.9204 27.8493 26.4532 27.2256 27.0509C26.6279 27.6486 25.9782 28.1684 25.2765 28.6102C24.6008 29.052 23.9511 29.2729 23.3274 29.2729ZM41.8423 29.2339C41.0367 29.2339 40.478 28.922 40.1661 28.2983C39.8802 27.6746 39.7373 26.908 39.7373 25.9984C39.7373 25.1668 39.8153 24.3481 39.9712 23.5425C40.0492 23.1787 40.1271 22.8149 40.2051 22.451C40.309 22.0612 40.426 21.6584 40.5559 21.2426C40.1141 22.0482 39.6464 22.8278 39.1526 23.5815C38.6848 24.3351 38.204 24.9978 37.7102 25.5696C36.8786 26.5831 35.995 27.4277 35.0595 28.1034C34.1499 28.7791 33.2403 29.1169 32.3307 29.1169C31.6031 29.1169 30.9793 28.8571 30.4596 28.3373C29.9658 27.7916 29.7189 26.856 29.7189 25.5306C29.7189 24.1792 29.9528 22.7889 30.4206 21.3595C30.8884 19.9302 31.5381 18.6048 32.3697 17.3834C33.2273 16.1359 34.2278 15.1354 35.3713 14.3817C36.5408 13.6281 37.8142 13.2513 39.1916 13.2513C39.6334 13.2513 40.1141 13.3162 40.6339 13.4462C41.1537 13.5761 41.6344 13.823 42.0762 14.1868C42.518 14.5247 42.8169 15.0054 42.9728 15.6292C42.9988 15.5772 43.0248 15.5382 43.0508 15.5122C43.1028 15.4862 43.1417 15.4602 43.1677 15.4343C43.5316 14.8625 43.9474 14.3817 44.4152 13.9919C44.8829 13.6021 45.4027 13.4072 45.9744 13.4072C46.2603 13.4072 46.6631 13.4202 47.1829 13.4462C47.7026 13.4722 48.0795 13.4722 48.3134 13.4462C48.1834 13.5501 48.0015 13.758 47.7676 14.0699C47.5597 14.3817 47.3648 14.7066 47.1829 15.0444C47.001 15.3563 46.858 15.6032 46.7541 15.7851C46.0524 17.1365 45.4157 18.4749 44.844 19.8002C44.2722 21.1256 43.8304 22.399 43.5186 23.6205C43.4406 23.8804 43.3886 24.1272 43.3626 24.3611C43.3367 24.569 43.3237 24.7769 43.3237 24.9849C43.3237 25.6605 43.5446 25.9984 43.9864 25.9984C44.4022 25.9984 44.9219 25.7385 45.5456 25.2187C46.4552 24.4911 47.2478 23.5815 47.9235 22.49C48.6252 21.3985 49.2359 20.346 49.7557 19.3325C49.8596 19.1505 49.9506 19.0596 50.0286 19.0596C50.1845 19.0596 50.2625 19.2805 50.2625 19.7223C50.2625 19.9302 50.2235 20.1641 50.1455 20.424C50.0935 20.6838 50.0026 20.9307 49.8726 21.1646C49.5088 21.7883 49.028 22.555 48.4303 23.4646C47.8586 24.3741 47.2089 25.2707 46.4812 26.1543C45.7535 27.0119 44.9869 27.7396 44.1813 28.3373C43.4016 28.935 42.622 29.2339 41.8423 29.2339ZM34.0849 25.8425C34.1629 25.8684 34.2798 25.8814 34.4358 25.8814C34.9295 25.8814 35.4623 25.6735 36.034 25.2577C36.6058 24.8419 37.1775 24.3092 37.7492 23.6595C38.321 22.9838 38.8277 22.3081 39.2695 21.6324C40.413 19.8132 41.2576 18.4489 41.8034 17.5393C42.3491 16.6297 42.661 16.1099 42.7389 15.98C42.609 15.5382 42.3751 15.2134 42.0372 15.0054C41.7254 14.7975 41.3486 14.6936 40.9068 14.6936C40.335 14.6936 39.7243 14.8495 39.0746 15.1614C38.4509 15.4732 37.9181 15.8501 37.4764 16.2919C36.8007 16.9675 36.151 17.8381 35.5272 18.9037C34.9295 19.9692 34.4358 21.0217 34.0459 22.0612C33.6821 23.1007 33.5002 23.9713 33.5002 24.673C33.5002 25.3227 33.6951 25.7125 34.0849 25.8425ZM53.4456 29.3898C52.2241 29.3898 51.2366 29.1689 50.483 28.7271C49.7293 28.2593 49.1836 27.6486 48.8457 26.895C48.5338 26.1153 48.3779 25.2837 48.3779 24.4001C48.3779 23.5165 48.5079 22.6199 48.7677 21.7104C49.0276 20.8008 49.3785 19.9432 49.8203 19.1375C50.7298 17.5003 51.8473 16.1489 53.1727 15.0834C54.5241 14.0179 56.1743 13.4851 58.1234 13.4851C59.3449 13.4851 60.2934 13.797 60.9691 14.4207C61.6448 15.0444 61.9827 15.7721 61.9827 16.6037C61.9827 17.3834 61.7488 18.098 61.281 18.7477C60.8392 19.3974 60.2415 19.7223 59.4878 19.7223C59.072 19.7223 58.7082 19.6053 58.3963 19.3714C58.0844 19.1375 57.9285 18.7737 57.9285 18.2799C57.9285 18.202 57.9285 18.124 57.9285 18.046C57.9545 17.9421 57.9805 17.8381 58.0065 17.7342C58.1624 17.7082 58.3833 17.6692 58.6692 17.6172C58.981 17.5393 59.2279 17.3574 59.4098 17.0715C59.7477 16.6037 59.9166 16.1359 59.9166 15.6681C59.9166 15.3823 59.8256 15.1484 59.6437 14.9665C59.4878 14.7586 59.2149 14.6546 58.8251 14.6546C58.1234 14.6546 57.4088 14.9145 56.6811 15.4343C55.9534 15.928 55.2647 16.5907 54.615 17.4223C53.9913 18.254 53.4456 19.1635 52.9778 20.1511C52.2501 21.7363 51.8863 23.1917 51.8863 24.5171C51.8863 25.4786 52.1072 26.2713 52.549 26.895C52.9908 27.4927 53.6925 27.7916 54.654 27.7916C55.8755 27.7916 57.0189 27.3757 58.0844 26.5441C59.1759 25.6865 60.1505 24.699 61.0081 23.5815C61.5798 22.8538 62.0866 22.1132 62.5284 21.3595C62.9962 20.6059 63.386 19.9172 63.6979 19.2935C63.8018 19.1116 63.8928 19.0206 63.9707 19.0206C64.1267 19.0206 64.2046 19.2415 64.2046 19.6833C64.2046 19.8912 64.1656 20.1381 64.0877 20.424C64.0357 20.6838 63.9447 20.9307 63.8148 21.1646C63.373 21.8923 62.9182 22.6199 62.4504 23.3476C62.0086 24.0753 61.5279 24.764 61.0081 25.4137C60.1245 26.5571 59.085 27.5057 57.8895 28.2593C56.6941 29.013 55.2128 29.3898 53.4456 29.3898ZM59.8932 29C60.179 28.4802 60.5039 27.8175 60.8677 27.0119C61.2055 26.2063 61.5434 25.3357 61.8812 24.4001C62.2451 23.4386 62.5699 22.516 62.8558 21.6324C63.5055 19.6313 64.1682 17.6562 64.8439 15.7071C65.5455 13.758 66.2472 12.0688 66.9489 10.6395C67.2348 10.0157 67.5986 9.2621 68.0404 8.3785C68.4822 7.46892 68.976 6.53335 69.5217 5.5718C70.0935 4.61024 70.7042 3.71365 71.3539 2.88204C72.0296 2.02443 72.7442 1.33575 73.4979 0.815988C74.2775 0.296228 75.0832 0.0363485 75.9148 0.0363485C76.7464 0.0363485 77.3051 0.218265 77.591 0.582097C77.9029 0.945929 78.0588 1.40072 78.0588 1.94647C78.0588 2.54419 77.9288 3.1809 77.669 3.85659C77.4091 4.53228 77.1622 5.09102 76.9283 5.53281C76.4085 6.52036 75.7329 7.63785 74.9012 8.88527C74.0956 10.1067 73.251 11.2502 72.3674 12.3157C71.9256 12.8614 71.3929 13.4852 70.7691 14.1868C70.1454 14.8625 69.5217 15.5122 68.898 16.1359C68.3003 16.7596 67.7805 17.2924 67.3387 17.7342L66.637 19.6833C67.3127 18.7997 68.0274 18.0071 68.7811 17.3054C69.5347 16.6037 70.3533 15.902 71.2369 15.2004C71.8866 14.6806 72.5623 14.2908 73.264 14.0309C73.9917 13.771 74.6543 13.6411 75.2521 13.6411C75.6939 13.6411 76.0967 13.706 76.4605 13.836C76.8503 13.9659 77.1362 14.1738 77.3181 14.4597C77.4481 14.6416 77.539 14.8365 77.591 15.0444C77.643 15.2523 77.669 15.4602 77.669 15.6681C77.669 16.084 77.591 16.4868 77.4351 16.8766C77.0972 17.6822 76.6035 18.3709 75.9538 18.9426C75.33 19.4884 74.6154 19.9042 73.8097 20.1901C73.5239 20.294 73.147 20.411 72.6793 20.5409C72.2115 20.6708 71.7957 20.7618 71.4318 20.8138C71.4838 21.1776 71.5228 21.5414 71.5488 21.9053C71.6008 22.2691 71.6527 22.6329 71.7047 22.9968C71.8606 23.8804 72.0555 24.634 72.2894 25.2577C72.5493 25.8814 72.9521 26.1933 73.4979 26.1933C73.9917 26.1933 74.6544 25.8684 75.486 25.2187C76.0837 24.751 76.6035 24.2182 77.0452 23.6205C77.565 22.9448 78.0588 22.2301 78.5266 21.4765C78.9943 20.6968 79.3972 19.9822 79.735 19.3325C79.839 19.1505 79.9299 19.0596 80.0079 19.0596C80.1638 19.0596 80.2418 19.2675 80.2418 19.6833C80.2418 19.9172 80.2028 20.1771 80.1248 20.4629C80.0729 20.7228 79.9689 20.9827 79.813 21.2426C79.4491 21.8663 79.0203 22.542 78.5266 23.2696C78.0588 23.9973 77.565 24.712 77.0452 25.4137C76.7594 25.8035 76.3955 26.2323 75.9538 26.7001C75.512 27.1678 75.0442 27.5966 74.5504 27.9865C74.1086 28.3243 73.5758 28.6362 72.9521 28.922C72.3284 29.1819 71.7177 29.3119 71.12 29.3119C70.6522 29.3119 70.2104 29.2079 69.7946 29C69.4048 28.7921 69.0799 28.4413 68.82 27.9475C68.5342 27.4017 68.3133 26.752 68.1573 25.9984C68.0014 25.2447 67.9235 24.4911 67.9235 23.7374C67.9235 23.3216 67.9364 22.9188 67.9624 22.529C68.0144 22.1132 68.0924 21.7363 68.1963 21.3985C68.3263 20.9567 68.4562 20.6578 68.5861 20.5019C68.7161 20.346 68.885 20.268 69.0929 20.268C69.8466 20.242 70.5872 20.1381 71.3149 19.9562C72.0426 19.7483 72.6533 19.4234 73.147 18.9816C73.7448 18.4619 74.0436 17.8771 74.0436 17.2274C74.0436 16.9416 73.9397 16.6947 73.7318 16.4868C73.5499 16.2529 73.238 16.1359 72.7962 16.1359C72.1985 16.1359 71.6138 16.3308 71.042 16.7207C70.4703 17.1105 69.9245 17.6172 69.4048 18.241C68.885 18.8647 68.4042 19.5144 67.9624 20.1901C67.5206 20.8398 67.1438 21.4375 66.832 21.9832C66.5981 22.3731 66.3382 22.8798 66.0523 23.5035C65.7664 24.1272 65.4676 24.7769 65.1557 25.4526C64.8439 26.1283 64.532 26.739 64.2202 27.2848C63.9083 27.8305 63.6094 28.2334 63.3236 28.4932C62.9857 28.8311 62.6349 29 62.2711 29H59.8932ZM68.3523 15.0834C69.6517 13.5761 70.9251 11.9908 72.1725 10.3276C73.4199 8.66437 74.4854 6.96216 75.369 5.22096C75.447 5.09102 75.5769 4.81814 75.7588 4.40234C75.9408 3.98653 76.1097 3.53174 76.2656 3.03797C76.4475 2.54419 76.5385 2.11539 76.5385 1.75156C76.5385 1.28377 76.3566 1.04988 75.9927 1.04988C75.6289 1.04988 75.1871 1.36174 74.6673 1.98545C74.1736 2.60916 73.6408 3.44078 73.0691 4.4803C72.5233 5.49383 71.9646 6.62431 71.3929 7.87174C70.8211 9.09317 70.2754 10.3406 69.7556 11.614C69.2358 12.8614 68.7681 14.0179 68.3523 15.0834ZM80.4732 29C80.7851 27.7006 81.2009 26.2583 81.7207 24.673C82.2664 23.0617 82.8771 21.3855 83.5528 19.6443C84.2545 17.9031 84.9692 16.1749 85.6968 14.4597C86.4245 12.7445 87.1262 11.1072 87.8019 9.54797C88.4775 7.9627 89.2572 6.36443 90.1408 4.75317C90.3227 4.44132 90.4786 4.15545 90.6086 3.89557C90.7645 3.63569 90.9334 3.41479 91.1153 3.23288C90.1018 3.25886 89.0103 3.3888 87.8408 3.6227C86.6974 3.8306 85.5929 4.12946 84.5274 4.51928C83.4878 4.9091 82.5913 5.36389 81.8376 5.88365C81.1099 6.40341 80.6422 6.97515 80.4342 7.59886C80.4083 7.67683 80.3563 7.71581 80.2783 7.71581C80.0444 7.71581 79.9275 7.53389 79.9275 7.17006C79.9275 7.0921 79.9535 6.97515 80.0054 6.81922C80.2393 6.14353 80.5252 5.54581 80.8631 5.02605C81.2269 4.50629 81.5907 4.06449 81.9545 3.70066C82.8122 2.81707 83.7737 2.28431 84.8392 2.1024C85.9047 1.89449 87.0352 1.79054 88.2307 1.79054H97.0406C96.4169 2.25833 95.7542 3.02497 95.0525 4.09048C94.3508 5.13 93.6622 6.29946 92.9865 7.59886C92.3108 8.89826 91.6741 10.1717 91.0763 11.4191C90.5046 12.6665 90.0238 13.719 89.634 14.5766C89.4521 14.9925 89.1922 15.6292 88.8544 16.4868C88.5165 17.3184 88.1397 18.2669 87.7239 19.3325C87.3341 20.398 86.9572 21.5025 86.5934 22.6459C86.2296 23.7634 85.9307 24.8029 85.6968 25.7645C85.4629 26.726 85.346 27.5187 85.346 28.1424C85.346 28.3243 85.359 28.4932 85.385 28.6492C85.4369 28.7791 85.4759 28.896 85.5019 29H80.4732ZM94.4005 29.2339C93.6468 29.2339 93.0751 28.935 92.6853 28.3373C92.5033 28.0514 92.3734 27.7136 92.2954 27.3238C92.2175 26.934 92.1785 26.5311 92.1785 26.1153C92.1785 25.6995 92.2045 25.2837 92.2565 24.8679C92.3084 24.4261 92.3734 23.9973 92.4514 23.5815C92.5813 22.9058 92.7242 22.2951 92.8802 21.7493C93.0621 21.1776 93.244 20.6319 93.4259 20.1121V20.0731C93.218 20.4629 92.9581 20.8917 92.6463 21.3595C92.3344 21.8013 92.1135 22.1262 91.9836 22.3341C91.8017 22.6199 91.6587 22.7629 91.5548 22.7629C91.4508 22.7629 91.3989 22.6459 91.3989 22.412C91.3989 21.8923 91.5548 21.3205 91.8666 20.6968C92.0745 20.281 92.3604 19.7483 92.7242 19.0986C93.0881 18.4229 93.4649 17.6952 93.8547 16.9156C94.2445 16.1359 94.5824 15.3823 94.8683 14.6546H92.2565C92.1265 14.6546 92.1005 14.5507 92.1785 14.3428C92.2565 14.1349 92.3734 13.9399 92.5293 13.758C92.6853 13.5501 92.8022 13.4462 92.8802 13.4462H95.8428C96.1287 12.7705 96.4535 12.0428 96.8174 11.2632C97.2072 10.4835 97.636 9.75587 98.1038 9.08018C98.5975 8.3785 99.1303 7.80677 99.702 7.36497C100.274 6.92317 100.884 6.70228 101.534 6.70228C101.82 6.70228 102.171 6.70228 102.587 6.70228C103.028 6.70228 103.301 6.68928 103.405 6.66329C102.86 7.02713 102.223 7.75479 101.495 8.84629C100.768 9.9118 99.9749 11.4451 99.1173 13.4462H103.054C103.132 13.4462 103.106 13.5501 102.977 13.758C102.847 13.9399 102.678 14.1349 102.47 14.3428C102.288 14.5507 102.106 14.6546 101.924 14.6546H98.5716C98.2337 15.5122 97.8569 16.4478 97.4411 17.4613C97.0513 18.4749 96.6874 19.4754 96.3496 20.4629C96.0377 21.4245 95.8038 22.3081 95.6479 23.1137C95.5439 23.6075 95.492 24.0623 95.492 24.4781C95.492 25.4656 95.8038 25.9594 96.4275 25.9594C96.8433 25.9594 97.3371 25.7515 97.9089 25.3357C98.4806 24.9199 99.0523 24.3481 99.6241 23.6205C100.144 22.9448 100.638 22.2171 101.105 21.4375C101.599 20.6578 102.015 19.9432 102.353 19.2935C102.457 19.1116 102.548 19.0206 102.626 19.0206C102.782 19.0206 102.86 19.2285 102.86 19.6443C102.86 19.8522 102.821 20.0991 102.743 20.385C102.691 20.6449 102.587 20.9047 102.431 21.1646C102.067 21.7883 101.638 22.477 101.144 23.2307C100.651 23.9583 100.144 24.686 99.6241 25.4137C99.2602 25.8814 98.7795 26.4142 98.1817 27.0119C97.61 27.6096 96.9863 28.1294 96.3106 28.5712C95.6609 29.013 95.0242 29.2339 94.4005 29.2339Z" fill="white"/>
</svg>
